<mxfile host="app.diagrams.net" modified="2021-11-17T13:30:30.009Z" agent="5.0 (Windows NT 10.0; Win64; x64) AppleWebKit/537.36 (KHTML, like Gecko) Chrome/95.0.4638.69 Safari/537.36" etag="_QTR6XknP42_m9RUEiqZ" version="15.7.4" type="github">
  <diagram id="kgpKYQtTHZ0yAKxKKP6v" name="Page-1">
    <mxGraphModel dx="1185" dy="635" grid="1" gridSize="10" guides="1" tooltips="1" connect="1" arrows="1" fold="1" page="1" pageScale="1" pageWidth="850" pageHeight="1100" math="0" shadow="0">
      <root>
        <mxCell id="0" />
        <mxCell id="1" parent="0" />
        <mxCell id="QE61wKvnC4oQsoH9w30M-3" style="edgeStyle=orthogonalEdgeStyle;rounded=0;orthogonalLoop=1;jettySize=auto;html=1;dashed=1;startArrow=none;" edge="1" parent="1" source="QE61wKvnC4oQsoH9w30M-27">
          <mxGeometry relative="1" as="geometry">
            <mxPoint x="245" y="440" as="targetPoint" />
          </mxGeometry>
        </mxCell>
        <mxCell id="QE61wKvnC4oQsoH9w30M-1" value="Actor" style="shape=umlActor;verticalLabelPosition=bottom;verticalAlign=top;html=1;outlineConnect=0;" vertex="1" parent="1">
          <mxGeometry x="230" y="120" width="30" height="60" as="geometry" />
        </mxCell>
        <mxCell id="QE61wKvnC4oQsoH9w30M-4" value="Menu" style="rounded=0;whiteSpace=wrap;html=1;" vertex="1" parent="1">
          <mxGeometry x="330" y="120" width="120" height="60" as="geometry" />
        </mxCell>
        <mxCell id="QE61wKvnC4oQsoH9w30M-5" value="PropertyRegistry" style="rounded=0;whiteSpace=wrap;html=1;" vertex="1" parent="1">
          <mxGeometry x="500" y="120" width="120" height="60" as="geometry" />
        </mxCell>
        <mxCell id="QE61wKvnC4oQsoH9w30M-6" value="Property" style="rounded=0;whiteSpace=wrap;html=1;" vertex="1" parent="1">
          <mxGeometry x="670" y="120" width="120" height="60" as="geometry" />
        </mxCell>
        <mxCell id="QE61wKvnC4oQsoH9w30M-7" style="edgeStyle=orthogonalEdgeStyle;rounded=0;orthogonalLoop=1;jettySize=auto;html=1;dashed=1;startArrow=none;" edge="1" parent="1" source="QE61wKvnC4oQsoH9w30M-33">
          <mxGeometry relative="1" as="geometry">
            <mxPoint x="390" y="440" as="targetPoint" />
            <mxPoint x="390" y="180" as="sourcePoint" />
          </mxGeometry>
        </mxCell>
        <mxCell id="QE61wKvnC4oQsoH9w30M-8" style="edgeStyle=orthogonalEdgeStyle;rounded=0;orthogonalLoop=1;jettySize=auto;html=1;dashed=1;startArrow=none;" edge="1" parent="1" source="QE61wKvnC4oQsoH9w30M-36">
          <mxGeometry relative="1" as="geometry">
            <mxPoint x="560" y="440" as="targetPoint" />
            <mxPoint x="559.5799999999999" y="180" as="sourcePoint" />
          </mxGeometry>
        </mxCell>
        <mxCell id="QE61wKvnC4oQsoH9w30M-9" style="edgeStyle=orthogonalEdgeStyle;rounded=0;orthogonalLoop=1;jettySize=auto;html=1;dashed=1;" edge="1" parent="1">
          <mxGeometry relative="1" as="geometry">
            <mxPoint x="730" y="440" as="targetPoint" />
            <mxPoint x="709.9999999999999" y="180" as="sourcePoint" />
            <Array as="points">
              <mxPoint x="730" y="180" />
              <mxPoint x="730" y="440" />
            </Array>
          </mxGeometry>
        </mxCell>
        <mxCell id="QE61wKvnC4oQsoH9w30M-12" value="" style="endArrow=classic;html=1;rounded=0;entryX=0.186;entryY=-0.167;entryDx=0;entryDy=0;entryPerimeter=0;" edge="1" parent="1" target="QE61wKvnC4oQsoH9w30M-27">
          <mxGeometry width="50" height="50" relative="1" as="geometry">
            <mxPoint x="390" y="240" as="sourcePoint" />
            <mxPoint x="240" y="240" as="targetPoint" />
          </mxGeometry>
        </mxCell>
        <mxCell id="QE61wKvnC4oQsoH9w30M-13" value="showMenu()" style="edgeLabel;html=1;align=center;verticalAlign=middle;resizable=0;points=[];" vertex="1" connectable="0" parent="QE61wKvnC4oQsoH9w30M-12">
          <mxGeometry x="-0.2889" y="-1" relative="1" as="geometry">
            <mxPoint x="-17" as="offset" />
          </mxGeometry>
        </mxCell>
        <mxCell id="QE61wKvnC4oQsoH9w30M-14" value="" style="endArrow=classic;html=1;rounded=0;dashed=1;exitX=0.277;exitY=0;exitDx=0;exitDy=0;exitPerimeter=0;entryX=0.158;entryY=1.083;entryDx=0;entryDy=0;entryPerimeter=0;" edge="1" parent="1" source="QE61wKvnC4oQsoH9w30M-27" target="QE61wKvnC4oQsoH9w30M-33">
          <mxGeometry width="50" height="50" relative="1" as="geometry">
            <mxPoint x="270" y="260" as="sourcePoint" />
            <mxPoint x="390" y="260" as="targetPoint" />
          </mxGeometry>
        </mxCell>
        <mxCell id="QE61wKvnC4oQsoH9w30M-15" value="2" style="edgeLabel;html=1;align=center;verticalAlign=middle;resizable=0;points=[];" vertex="1" connectable="0" parent="QE61wKvnC4oQsoH9w30M-14">
          <mxGeometry x="-0.2738" relative="1" as="geometry">
            <mxPoint as="offset" />
          </mxGeometry>
        </mxCell>
        <mxCell id="QE61wKvnC4oQsoH9w30M-16" value="" style="endArrow=classic;html=1;rounded=0;entryX=0.1;entryY=1;entryDx=0;entryDy=0;entryPerimeter=0;" edge="1" parent="1" target="QE61wKvnC4oQsoH9w30M-36">
          <mxGeometry width="50" height="50" relative="1" as="geometry">
            <mxPoint x="390" y="280" as="sourcePoint" />
            <mxPoint x="560" y="280" as="targetPoint" />
          </mxGeometry>
        </mxCell>
        <mxCell id="QE61wKvnC4oQsoH9w30M-18" value="toString()" style="edgeLabel;html=1;align=center;verticalAlign=middle;resizable=0;points=[];" vertex="1" connectable="0" parent="QE61wKvnC4oQsoH9w30M-16">
          <mxGeometry x="-0.1078" y="-2" relative="1" as="geometry">
            <mxPoint as="offset" />
          </mxGeometry>
        </mxCell>
        <mxCell id="QE61wKvnC4oQsoH9w30M-19" value="" style="endArrow=classic;html=1;rounded=0;entryX=0.167;entryY=1.125;entryDx=0;entryDy=0;entryPerimeter=0;" edge="1" parent="1" target="QE61wKvnC4oQsoH9w30M-38">
          <mxGeometry width="50" height="50" relative="1" as="geometry">
            <mxPoint x="560" y="300" as="sourcePoint" />
            <mxPoint x="730" y="300" as="targetPoint" />
          </mxGeometry>
        </mxCell>
        <mxCell id="QE61wKvnC4oQsoH9w30M-20" value="toString()" style="edgeLabel;html=1;align=center;verticalAlign=middle;resizable=0;points=[];" vertex="1" connectable="0" parent="QE61wKvnC4oQsoH9w30M-19">
          <mxGeometry x="0.1275" y="-1" relative="1" as="geometry">
            <mxPoint x="-16" as="offset" />
          </mxGeometry>
        </mxCell>
        <mxCell id="QE61wKvnC4oQsoH9w30M-21" value="" style="endArrow=classic;html=1;rounded=0;dashed=1;entryX=0.692;entryY=-0.208;entryDx=0;entryDy=0;entryPerimeter=0;" edge="1" parent="1" target="QE61wKvnC4oQsoH9w30M-36">
          <mxGeometry width="50" height="50" relative="1" as="geometry">
            <mxPoint x="730" y="340" as="sourcePoint" />
            <mxPoint x="560" y="340" as="targetPoint" />
          </mxGeometry>
        </mxCell>
        <mxCell id="QE61wKvnC4oQsoH9w30M-22" value="String" style="edgeLabel;html=1;align=center;verticalAlign=middle;resizable=0;points=[];" vertex="1" connectable="0" parent="QE61wKvnC4oQsoH9w30M-21">
          <mxGeometry x="-0.1569" y="2" relative="1" as="geometry">
            <mxPoint x="-18" as="offset" />
          </mxGeometry>
        </mxCell>
        <mxCell id="QE61wKvnC4oQsoH9w30M-23" value="" style="endArrow=classic;html=1;rounded=0;dashed=1;entryX=0.693;entryY=-0.125;entryDx=0;entryDy=0;entryPerimeter=0;" edge="1" parent="1" target="QE61wKvnC4oQsoH9w30M-33">
          <mxGeometry width="50" height="50" relative="1" as="geometry">
            <mxPoint x="560" y="360" as="sourcePoint" />
            <mxPoint x="390" y="360" as="targetPoint" />
          </mxGeometry>
        </mxCell>
        <mxCell id="QE61wKvnC4oQsoH9w30M-24" value="String" style="edgeLabel;html=1;align=center;verticalAlign=middle;resizable=0;points=[];" vertex="1" connectable="0" parent="QE61wKvnC4oQsoH9w30M-23">
          <mxGeometry x="-0.1863" y="3" relative="1" as="geometry">
            <mxPoint x="-21" as="offset" />
          </mxGeometry>
        </mxCell>
        <mxCell id="QE61wKvnC4oQsoH9w30M-25" value="" style="endArrow=classic;html=1;rounded=0;" edge="1" parent="1">
          <mxGeometry width="50" height="50" relative="1" as="geometry">
            <mxPoint x="390" y="390" as="sourcePoint" />
            <mxPoint x="260" y="390" as="targetPoint" />
          </mxGeometry>
        </mxCell>
        <mxCell id="QE61wKvnC4oQsoH9w30M-26" value="Print out all properties" style="edgeLabel;html=1;align=center;verticalAlign=middle;resizable=0;points=[];" vertex="1" connectable="0" parent="QE61wKvnC4oQsoH9w30M-25">
          <mxGeometry x="-0.2" y="2" relative="1" as="geometry">
            <mxPoint x="-18" y="-12" as="offset" />
          </mxGeometry>
        </mxCell>
        <mxCell id="QE61wKvnC4oQsoH9w30M-27" value="" style="rounded=1;whiteSpace=wrap;html=1;direction=south;" vertex="1" parent="1">
          <mxGeometry x="235" y="200" width="20" height="220" as="geometry" />
        </mxCell>
        <mxCell id="QE61wKvnC4oQsoH9w30M-31" value="" style="edgeStyle=orthogonalEdgeStyle;rounded=0;orthogonalLoop=1;jettySize=auto;html=1;dashed=1;endArrow=none;" edge="1" parent="1" source="QE61wKvnC4oQsoH9w30M-1" target="QE61wKvnC4oQsoH9w30M-27">
          <mxGeometry relative="1" as="geometry">
            <mxPoint x="245" y="560" as="targetPoint" />
            <mxPoint x="245" y="180" as="sourcePoint" />
          </mxGeometry>
        </mxCell>
        <mxCell id="QE61wKvnC4oQsoH9w30M-33" value="" style="rounded=1;whiteSpace=wrap;html=1;direction=south;" vertex="1" parent="1">
          <mxGeometry x="380" y="230" width="20" height="190" as="geometry" />
        </mxCell>
        <mxCell id="QE61wKvnC4oQsoH9w30M-34" value="" style="edgeStyle=orthogonalEdgeStyle;rounded=0;orthogonalLoop=1;jettySize=auto;html=1;dashed=1;endArrow=none;" edge="1" parent="1" target="QE61wKvnC4oQsoH9w30M-33">
          <mxGeometry relative="1" as="geometry">
            <mxPoint x="390" y="560" as="targetPoint" />
            <mxPoint x="390" y="180" as="sourcePoint" />
          </mxGeometry>
        </mxCell>
        <mxCell id="QE61wKvnC4oQsoH9w30M-36" value="" style="rounded=1;whiteSpace=wrap;html=1;direction=south;" vertex="1" parent="1">
          <mxGeometry x="550" y="270" width="20" height="100" as="geometry" />
        </mxCell>
        <mxCell id="QE61wKvnC4oQsoH9w30M-37" value="" style="edgeStyle=orthogonalEdgeStyle;rounded=0;orthogonalLoop=1;jettySize=auto;html=1;dashed=1;endArrow=none;" edge="1" parent="1" target="QE61wKvnC4oQsoH9w30M-36">
          <mxGeometry relative="1" as="geometry">
            <mxPoint x="559.5799999999997" y="560" as="targetPoint" />
            <mxPoint x="559.5799999999997" y="180" as="sourcePoint" />
          </mxGeometry>
        </mxCell>
        <mxCell id="QE61wKvnC4oQsoH9w30M-38" value="" style="rounded=1;whiteSpace=wrap;html=1;direction=south;" vertex="1" parent="1">
          <mxGeometry x="720" y="290" width="20" height="60" as="geometry" />
        </mxCell>
      </root>
    </mxGraphModel>
  </diagram>
</mxfile>
